<svg width="77" height="63" viewBox="0 0 77 63" fill="none" xmlns="http://www.w3.org/2000/svg">
<path d="M21.7116 50.8109H7.21875C3.23801 50.8109 0 47.5549 0 43.5522V14.5174C0 10.5146 3.23801 7.2587 7.21875 7.2587H24.8044L23.4297 12.0978H7.21875C5.8913 12.0978 4.8125 13.1826 4.8125 14.5174V43.5522C4.8125 44.887 5.8913 45.9717 7.21875 45.9717H23.0864L21.7116 50.8109ZM74.5938 19.3565H72.1875V14.5174C72.1875 10.5146 68.9495 7.2587 64.9688 7.2587H59.071L57.6955 12.0978H64.9688C66.2962 12.0978 67.375 13.1826 67.375 14.5174V21.7761C67.375 23.1133 68.4514 24.1957 69.7812 24.1957H72.1875V33.8739H69.7812C68.4514 33.8739 67.375 34.9563 67.375 36.2935V43.5522C67.375 44.887 66.2962 45.9717 64.9688 45.9717H48.3504L44.2253 50.8109H64.9688C68.9495 50.8109 72.1875 47.5549 72.1875 43.5522V38.713H74.5938C75.9236 38.713 77 37.6307 77 36.2935V21.7761C77 20.4389 75.9236 19.3565 74.5938 19.3565ZM28.2943 62.0626L57.1693 28.1887C57.7829 27.4725 57.9216 26.4612 57.5286 25.6038C57.1356 24.7465 56.2838 24.1957 55.3438 24.1957H49.2527L55.2515 3.08333C55.4584 2.35343 55.3125 1.56869 54.8593 0.961374C54.4037 0.356483 53.6915 0 52.9375 0H33.6875C32.6135 0 31.6687 0.716191 31.3727 1.7558L21.7477 35.6297C21.5408 36.3596 21.6867 37.1444 22.1399 37.7517C22.5963 38.3566 23.3085 38.713 24.0625 38.713H30.1535L24.1547 59.8254C23.8443 60.9174 24.3336 62.082 25.3298 62.6208C25.6883 62.8143 26.0813 62.9087 26.4688 62.9087C27.1529 62.9087 27.8243 62.6159 28.2943 62.0626ZM35.5018 4.83913H49.7468L43.748 25.9514C43.5411 26.6814 43.6871 27.4661 44.1403 28.0734C44.5958 28.6783 45.3073 29.0348 46.062 29.0348H50.1134L31.8074 50.5084L35.659 36.9572C35.866 36.2273 35.72 35.4426 35.2668 34.8353C34.8104 34.2304 34.099 33.8739 33.3442 33.8739H27.2532L35.5018 4.83913Z" fill="#333333"/>
</svg>
