<svg width="27" height="27" viewBox="0 0 27 27" fill="none" xmlns="http://www.w3.org/2000/svg">
<path d="M15.3312 3.27798C15.0786 2.9501 14.8082 2.63641 14.5211 2.33835C12.8892 0.804605 10.7243 -0.0336812 8.48506 0.00103691C6.24578 0.035755 4.10795 0.940751 2.52435 2.52435C0.940751 4.10795 0.035755 6.24578 0.00103691 8.48506C-0.0336812 10.7243 0.804605 12.8892 2.33835 14.5211C2.63641 14.8082 2.9501 15.0786 3.27798 15.3312C2.74293 17.1664 2.83319 19.1274 3.53456 20.9057C4.23594 22.684 5.50862 24.1786 7.15239 25.1545C8.79615 26.1304 10.7177 26.5321 12.6147 26.2964C14.5118 26.0607 16.2766 25.201 17.6316 23.8526C18.7261 22.7604 19.5091 21.3958 19.8997 19.8997C21.3952 19.5076 22.7595 18.7249 23.8526 17.6316C25.201 16.2766 26.0607 14.5118 26.2964 12.6147C26.5321 10.7177 26.1304 8.79615 25.1545 7.15239C24.1786 5.50862 22.684 4.23594 20.9057 3.53456C19.1274 2.83319 17.1664 2.74293 15.3312 3.27798ZM3.24558 13.5815C1.93439 12.1947 1.21645 10.3507 1.24469 8.44241C1.27292 6.53409 2.0451 4.71219 3.39674 3.36477C4.74839 2.01734 6.5727 1.25087 8.4811 1.22861C10.3895 1.20635 12.2312 1.93005 13.6139 3.24558L14.0675 3.764C13.1786 4.18573 12.3678 4.75545 11.6698 5.44885C10.5741 6.53494 9.80035 7.90307 9.43417 9.40177C7.92829 9.79145 6.55295 10.5742 5.44885 11.6698C4.75545 12.3678 4.18573 13.1786 3.764 14.0675C3.57597 13.9226 3.40236 13.7598 3.24558 13.5815ZM15.5256 10.1146C14.2934 9.47813 12.9271 9.14489 11.5402 9.14256H10.8598C11.1958 8.07786 11.7851 7.11057 12.5771 6.32368C13.2293 5.69986 13.986 5.19539 14.8127 4.83323C15.7115 6.4396 15.9663 8.32744 15.5256 10.1146ZM18.7657 18.7657C17.6464 18.9314 16.5039 18.8331 15.4294 18.4786C14.3549 18.1242 13.3781 17.5235 12.5771 16.7244L12.1235 16.206C13.9179 15.3617 15.3617 13.9179 16.206 12.1235C16.368 12.2855 16.5624 12.4151 16.7244 12.6095C18.092 13.9753 18.8612 15.8284 18.8629 17.7612C18.8643 18.0985 18.8317 18.435 18.7657 18.7657ZM13.6139 13.5815C12.9712 14.2253 12.2127 14.742 11.3782 15.1044C10.6045 13.7149 10.3085 12.1098 10.5358 10.5358C10.8665 10.4698 11.203 10.4372 11.5402 10.4386C12.7901 10.4339 14.0192 10.758 15.1044 11.3782C14.7495 12.1993 14.244 12.9466 13.6139 13.5815ZM10.147 15.5256C8.3595 15.9597 6.47407 15.7053 4.86563 14.8127C5.22048 13.9917 5.72601 13.2444 6.35608 12.6095C7.14902 11.8101 8.11278 11.2009 9.17497 10.8274C9.0405 12.4544 9.37799 14.0856 10.147 15.5256ZM16.7244 22.9454C15.5939 24.0674 14.1285 24.7902 12.5502 25.0043C10.9719 25.2184 9.36687 24.912 7.97839 24.1317C6.5899 23.3514 5.4937 22.1396 4.85597 20.6801C4.21824 19.2206 4.07375 17.593 4.44442 16.044C5.67149 16.6977 7.03941 17.0425 8.42974 17.0484C9.25224 17.0411 10.0699 16.9212 10.8598 16.692C11.1123 17.0199 11.3827 17.3336 11.6698 17.6316C12.4685 18.4336 13.4178 19.0697 14.4632 19.5034C15.5086 19.9371 16.6294 20.1599 17.7612 20.1589H18.4741C18.1087 21.2079 17.5106 22.1606 16.7244 22.9454ZM22.9454 16.7244C22.1513 17.5147 21.1871 18.1131 20.1265 18.4741C20.1265 18.2148 20.1589 17.988 20.1589 17.7612C20.1599 16.6294 19.9371 15.5086 19.5034 14.4632C19.0697 13.4178 18.4336 12.4685 17.6316 11.6698C17.3336 11.3827 17.0199 11.1123 16.692 10.8598C17.3108 8.71775 17.0786 6.41947 16.044 4.44442C16.6031 4.28952 17.1811 4.21318 17.7612 4.21761C19.2113 4.21512 20.6295 4.64323 21.8361 5.44768C23.0426 6.25213 23.9831 7.39669 24.5383 8.73628C25.0936 10.0759 25.2386 11.5502 24.9551 12.9723C24.6715 14.3944 23.972 15.7003 22.9454 16.7244Z" fill="white"/>
</svg>
