<svg width="27" height="28" viewBox="0 0 27 28" fill="none" xmlns="http://www.w3.org/2000/svg">
<path d="M25.4277 21.9791L23.6933 20.7353C23.5939 20.6632 23.4775 20.6182 23.3556 20.6048C23.2336 20.5914 23.1103 20.61 22.9977 20.6588L18.4331 22.5722V21.4242C18.4324 21.2331 18.3571 21.0499 18.2234 20.9139L16.8989 19.6C16.7634 19.4658 16.5809 19.3902 16.3906 19.3895H13.6779C13.6253 19.3898 13.5732 19.3795 13.5247 19.3592C13.4761 19.339 13.4321 19.3091 13.3952 19.2715L11.0097 16.8797C10.9297 16.7985 10.8317 16.7373 10.7238 16.7011L9.59932 16.3344C9.49676 16.3019 9.38838 16.2921 9.28168 16.3057L5.89556 16.8319C5.8745 16.835 5.85309 16.835 5.83203 16.8319H0.721087C0.625859 16.8319 0.531574 16.8508 0.443674 16.8876C0.355775 16.9244 0.276002 16.9783 0.208962 17.0462C0.141922 17.1141 0.088942 17.1946 0.0530812 17.2832C0.0172204 17.3718 -0.000811022 17.4666 2.79893e-05 17.5622V22.8114C2.79893e-05 23.0034 0.0759964 23.1875 0.211221 23.3233C0.346446 23.459 0.52985 23.5353 0.721087 23.5353H5.38097C5.43355 23.535 5.48565 23.5453 5.53421 23.5656C5.58276 23.5859 5.62678 23.6157 5.66368 23.6533L9.79309 27.7991C9.92855 27.9333 10.111 28.0089 10.3013 28.0096H17.9471C18.0489 28.0093 18.1496 27.9876 18.2425 27.9458L25.2974 24.7567C25.4234 24.6988 25.5301 24.6058 25.605 24.4888C25.6799 24.3718 25.7198 24.2357 25.7199 24.0966V22.569C25.7212 22.4545 25.6953 22.3413 25.6445 22.2387C25.5937 22.1362 25.5194 22.0472 25.4277 21.9791ZM1.60415 21.5358V18.8378C1.60415 18.7304 1.64665 18.6274 1.7223 18.5514C1.79796 18.4755 1.90057 18.4328 2.00756 18.4328H5.8765C5.91243 18.4359 5.94856 18.4359 5.9845 18.4328L9.20862 17.9385C9.2701 17.9227 9.33455 17.9227 9.39603 17.9385L9.94238 18.1171C10.0022 18.1372 10.0566 18.1711 10.1012 18.216L12.6424 20.7672C12.7778 20.9014 12.9603 20.977 13.1506 20.9777H15.8633C15.9159 20.9774 15.968 20.9877 16.0166 21.008C16.0651 21.0282 16.1091 21.0581 16.146 21.0957L16.7178 21.6697C16.7553 21.7067 16.785 21.7509 16.8052 21.7997C16.8253 21.8484 16.8356 21.9007 16.8353 21.9535V22.1672C16.8353 22.2746 16.7928 22.3776 16.7172 22.4536C16.6415 22.5295 16.5389 22.5722 16.4319 22.5722H12.725C12.6724 22.5725 12.6203 22.5622 12.5717 22.5419C12.5232 22.5217 12.4792 22.4918 12.4423 22.4542L11.2765 21.2998C11.21 21.2323 11.1309 21.1787 11.0436 21.1421C10.9564 21.1056 10.8628 21.0867 10.7683 21.0867C10.6737 21.0867 10.5801 21.1056 10.4929 21.1421C10.4056 21.1787 10.3265 21.2323 10.26 21.2998L10.152 21.405C10.0178 21.5406 9.94246 21.7241 9.94246 21.9153C9.94246 22.1065 10.0178 22.2899 10.152 22.4255L11.6831 23.9626C11.8186 24.0969 12.001 24.1724 12.1913 24.1731H18.5824C18.6795 24.1732 18.7756 24.1537 18.8651 24.1157L22.9183 22.3904C22.9811 22.3639 23.0496 22.3538 23.1173 22.3611C23.1851 22.3683 23.2499 22.3927 23.3058 22.4319L23.9824 22.9007C24.0339 22.9366 24.0762 22.9842 24.106 23.0396C24.1358 23.095 24.1522 23.1567 24.1539 23.2196C24.1539 23.2973 24.1317 23.3734 24.0901 23.439C24.0485 23.5045 23.9891 23.5567 23.9189 23.5895L17.8836 26.3608C17.8315 26.3837 17.7752 26.3957 17.7184 26.3959H10.8191C10.7665 26.3962 10.7144 26.3859 10.6658 26.3656C10.6173 26.3453 10.5733 26.3155 10.5364 26.2779L6.40697 22.1321C6.27151 21.9979 6.08905 21.9224 5.89873 21.9216H1.99168C1.88791 21.9218 1.78808 21.8817 1.71295 21.8099C1.63782 21.738 1.59317 21.6398 1.58826 21.5358H1.60415Z" fill="white"/>
<path d="M10.8858 10.3549C10.9686 10.4768 11.0705 10.5845 11.1875 10.6738L12.7377 11.8378C12.8466 11.9203 12.9371 12.0247 13.0033 12.1445C13.0695 12.2642 13.11 12.3966 13.122 12.533L13.2967 14.0989C13.3312 14.418 13.482 14.7131 13.72 14.9273C13.9581 15.1416 14.2666 15.26 14.5864 15.2597H16.8607C17.1805 15.26 17.489 15.1416 17.7271 14.9273C17.9651 14.7131 18.1159 14.418 18.1504 14.0989L18.3251 12.5298C18.3397 12.3971 18.381 12.2687 18.4465 12.1525C18.512 12.0363 18.6004 11.9346 18.7063 11.8538L20.2627 10.6706C20.3789 10.5824 20.4789 10.4745 20.5581 10.3517L21.6953 8.64237C21.8403 8.42782 21.9177 8.17452 21.9177 7.91526V5.01321C21.9162 4.78931 21.8571 4.56959 21.7461 4.3754L20.6121 2.38223C20.4953 2.17379 20.3225 2.0025 20.1134 1.88793L17.4674 0.41458C17.2729 0.306863 17.0542 0.250875 16.8321 0.251937H14.6086C14.3865 0.251296 14.168 0.307258 13.9733 0.41458L11.34 1.88155C11.1313 1.99526 10.9586 2.1654 10.8413 2.37267L9.68825 4.36583C9.57829 4.56046 9.51928 4.7799 9.51672 5.00365V7.90251C9.51655 8.16031 9.59285 8.41233 9.7359 8.62642L10.8858 10.3549ZM15.7235 13.6492C15.482 13.6491 15.249 13.5596 15.069 13.3978C14.8891 13.236 14.7749 13.0132 14.7484 12.7722L14.6404 11.7932C14.6212 11.6167 14.5666 11.4461 14.4798 11.2915C14.3929 11.1369 14.2758 11.0016 14.1353 10.8939L12.3184 9.52574C12.2296 9.45789 12.1524 9.37604 12.0897 9.28337L11.2765 8.06834C11.1683 7.90605 11.1108 7.71508 11.1113 7.51982V5.35125C11.1163 5.18485 11.1633 5.02244 11.2479 4.87927L12.0357 3.49203C12.1273 3.33683 12.2576 3.20825 12.4137 3.11891L14.453 1.97084C14.5981 1.89131 14.7609 1.84964 14.9263 1.84966H16.5145C16.6799 1.84964 16.8426 1.89131 16.9878 1.97084L19.0334 3.10296C19.1895 3.1923 19.3198 3.32089 19.4114 3.47608L20.1992 4.87927C20.2842 5.02773 20.3291 5.19594 20.3294 5.3672V7.5262C20.3305 7.71863 20.2753 7.90715 20.1706 8.06834L19.3701 9.27699C19.3074 9.36966 19.2302 9.45151 19.1414 9.51936L17.3118 10.8939C17.1702 11.001 17.0518 11.136 16.9639 11.2907C16.8759 11.4453 16.8203 11.6163 16.8004 11.7932L16.6924 12.7722C16.6659 13.0122 16.5527 13.234 16.3741 13.3957C16.1955 13.5573 15.964 13.6475 15.7235 13.6492Z" fill="white"/>
<path d="M14.1353 16.2005C13.9247 16.2005 13.7227 16.2845 13.5738 16.434C13.4249 16.5835 13.3412 16.7863 13.3412 16.9977C13.3412 17.2092 13.4249 17.412 13.5738 17.5615C13.7227 17.711 13.9247 17.795 14.1353 17.795H17.3118C17.5224 17.795 17.7244 17.711 17.8733 17.5615C18.0223 17.412 18.1059 17.2092 18.1059 16.9977C18.1059 16.7863 18.0223 16.5835 17.8733 16.434C17.7244 16.2845 17.5224 16.2005 17.3118 16.2005H14.1353Z" fill="white"/>
<path d="M17.7056 8.31071C17.7198 8.32596 17.7371 8.33812 17.7562 8.34643C17.7753 8.35474 17.7959 8.35903 17.8168 8.35903C17.8376 8.35903 17.8582 8.35474 17.8773 8.34643C17.8965 8.33812 17.9137 8.32596 17.9279 8.31071L18.8237 7.41139C18.8389 7.39708 18.851 7.37979 18.8593 7.36059C18.8676 7.34139 18.8718 7.3207 18.8718 7.29978C18.8718 7.27886 18.8676 7.25816 18.8593 7.23896C18.851 7.21977 18.8389 7.20247 18.8237 7.18816L17.5912 5.9508C17.5771 5.93548 17.5598 5.92331 17.5407 5.91507C17.5215 5.90683 17.5009 5.90271 17.4801 5.90297H16.5081C16.4872 5.90271 16.4666 5.90683 16.4474 5.91507C16.4283 5.92331 16.4111 5.93548 16.3969 5.9508L15.7235 6.6205L15.0501 5.9508C15.0359 5.93548 15.0187 5.92331 14.9995 5.91507C14.9804 5.90683 14.9597 5.90271 14.9389 5.90297H13.9669C13.9461 5.90271 13.9254 5.90683 13.9063 5.91507C13.8871 5.92331 13.8699 5.93548 13.8557 5.9508L12.6232 7.18816C12.608 7.20247 12.5959 7.21977 12.5877 7.23896C12.5794 7.25816 12.5751 7.27886 12.5751 7.29978C12.5751 7.3207 12.5794 7.34139 12.5877 7.36059C12.5959 7.37979 12.608 7.39708 12.6232 7.41139L13.519 8.31071C13.5333 8.32596 13.5505 8.33812 13.5696 8.34643C13.5887 8.35474 13.6093 8.35903 13.6302 8.35903C13.651 8.35903 13.6716 8.35474 13.6907 8.34643C13.7099 8.33812 13.7271 8.32596 13.7414 8.31071L14.4529 7.60274L15.1263 8.27244C15.1405 8.28776 15.1577 8.29993 15.1768 8.30817C15.196 8.31641 15.2166 8.32053 15.2375 8.32028H16.2095C16.2303 8.32053 16.251 8.31641 16.2701 8.30817C16.2892 8.29993 16.3065 8.28776 16.3206 8.27244L16.9941 7.60274L17.7056 8.31071Z" fill="white"/>
<path d="M8.65902 9.57677C8.55556 9.56111 8.45003 9.5663 8.34859 9.59203C8.24715 9.61777 8.15183 9.66353 8.0682 9.72666L6.54349 10.8747C6.45834 10.9368 6.38639 11.0153 6.33184 11.1057C6.2773 11.196 6.24126 11.2964 6.22585 11.4009C6.21014 11.5043 6.21527 11.6098 6.24091 11.7111C6.26655 11.8124 6.3122 11.9076 6.37514 11.9909C6.44911 12.0899 6.54503 12.1703 6.65529 12.2256C6.76556 12.281 6.88715 12.3098 7.01043 12.3098C7.18136 12.3103 7.34769 12.2542 7.48373 12.1503L9.00843 11.0023C9.09221 10.9397 9.16282 10.8611 9.21619 10.7711C9.26957 10.681 9.30465 10.5812 9.31941 10.4774C9.33418 10.3736 9.32833 10.268 9.30222 10.1665C9.2761 10.065 9.23024 9.96971 9.16726 9.88611C9.04504 9.71981 8.8624 9.60865 8.65902 9.57677Z" fill="white"/>
<path d="M22.4259 11.0023L23.9506 12.1503C24.0761 12.2476 24.2277 12.3049 24.3858 12.3149C24.544 12.325 24.7015 12.2873 24.8382 12.2067C24.9748 12.1261 25.0843 12.0063 25.1526 11.8627C25.2209 11.7191 25.2448 11.5583 25.2212 11.4009C25.1884 11.1904 25.0743 11.0013 24.9036 10.8747L23.3789 9.72665C23.2955 9.66383 23.2005 9.61813 23.0995 9.59214C22.9985 9.56616 22.8933 9.56041 22.7901 9.57521C22.6869 9.59002 22.5875 9.6251 22.4978 9.67844C22.4081 9.73178 22.3297 9.80235 22.2671 9.88611C22.1405 10.0547 22.0856 10.2669 22.1146 10.4761C22.1459 10.6856 22.2576 10.8745 22.4259 11.0023Z" fill="white"/>
<path d="M6.5435 1.43508L8.0682 2.58315C8.20544 2.68707 8.37277 2.74307 8.54467 2.7426H8.65585C8.81434 2.72359 8.96339 2.65689 9.08341 2.55126C9.20344 2.44562 9.28882 2.306 9.32835 2.15074C9.36787 1.99548 9.35967 1.83185 9.30484 1.68136C9.25001 1.53086 9.15111 1.40054 9.02114 1.30752L7.49644 0.159458C7.41346 0.0962687 7.31869 0.0504433 7.21775 0.0246971C7.11681 -0.00104918 7.01175 -0.00619238 6.90879 0.00957221C6.75271 0.030559 6.60641 0.0978459 6.48865 0.202815C6.37089 0.307784 6.28702 0.445656 6.24778 0.598773C6.20855 0.751889 6.21573 0.913279 6.26841 1.06227C6.32109 1.21127 6.41688 1.34108 6.5435 1.43508Z" fill="white"/>
<path d="M22.9055 2.7426C23.0762 2.74191 23.2422 2.68599 23.3788 2.58314L24.9035 1.43508C24.9869 1.37226 25.0572 1.29356 25.1104 1.20347C25.1635 1.11338 25.1984 1.01366 25.2132 0.910017C25.2279 0.806371 25.2222 0.700823 25.1963 0.5994C25.1704 0.497977 25.1249 0.402665 25.0623 0.318907C24.9998 0.235148 24.9214 0.164582 24.8316 0.111239C24.7419 0.0578958 24.6426 0.0228196 24.5393 0.00801295C24.4361 -0.00679366 24.331 -0.00104061 24.2299 0.0249436C24.1289 0.0509278 24.034 0.0966341 23.9506 0.159453L22.4259 1.30752C22.2581 1.4349 22.1472 1.6237 22.1175 1.83277C22.0877 2.04183 22.1415 2.25423 22.267 2.42369C22.3417 2.52277 22.4382 2.60314 22.5489 2.65847C22.6597 2.7138 22.7818 2.7426 22.9055 2.7426Z" fill="white"/>
<path d="M5.24117 6.95217H7.14705C7.35766 6.95217 7.55965 6.86817 7.70858 6.71865C7.8575 6.56914 7.94117 6.36635 7.94117 6.1549C7.94117 5.94345 7.8575 5.74067 7.70858 5.59115C7.55965 5.44163 7.35766 5.35764 7.14705 5.35764H5.24117C5.03056 5.35764 4.82857 5.44163 4.67964 5.59115C4.53072 5.74067 4.44705 5.94345 4.44705 6.1549C4.44705 6.36635 4.53072 6.56914 4.67964 6.71865C4.82857 6.86817 5.03056 6.95217 5.24117 6.95217Z" fill="white"/>
<path d="M26.2059 5.35764H24.3C24.0894 5.35764 23.8874 5.44163 23.7385 5.59115C23.5895 5.74067 23.5059 5.94345 23.5059 6.1549C23.5059 6.36635 23.5895 6.56914 23.7385 6.71865C23.8874 6.86817 24.0894 6.95217 24.3 6.95217H26.2059C26.4165 6.95217 26.6185 6.86817 26.7674 6.71865C26.9163 6.56914 27 6.36635 27 6.1549C27 5.94345 26.9163 5.74067 26.7674 5.59115C26.6185 5.44163 26.4165 5.35764 26.2059 5.35764Z" fill="white"/>
</svg>
