<svg width="26" height="26" viewBox="0 0 26 26" fill="none" xmlns="http://www.w3.org/2000/svg">
<path d="M24.5878 6.09195H18.9124V0.41672C18.9124 0.41209 18.9112 0.407817 18.9111 0.403222C18.9105 0.388301 18.9087 0.373549 18.9066 0.358627C18.9047 0.345452 18.903 0.332396 18.9 0.319644C18.897 0.307334 18.8928 0.295346 18.8886 0.283188C18.8836 0.268487 18.8784 0.25404 18.8719 0.240136C18.87 0.236117 18.8692 0.231878 18.8671 0.227894C18.8636 0.221094 18.8587 0.215566 18.8551 0.209038C18.8472 0.195473 18.8391 0.182298 18.8297 0.169767C18.8222 0.159661 18.8142 0.150335 18.8061 0.14106C18.7965 0.13031 18.7867 0.119983 18.7761 0.110267C18.7668 0.101704 18.757 0.0938704 18.747 0.0862401C18.7356 0.0775584 18.7239 0.0694193 18.7117 0.0619246C18.7011 0.0555151 18.6904 0.0498178 18.6794 0.0443918C18.6664 0.0379653 18.6534 0.0321153 18.6395 0.0270454C18.6277 0.0226537 18.6156 0.0191437 18.6034 0.0158372C18.5901 0.0122425 18.5767 0.00902079 18.5629 0.00676559C18.5486 0.0043917 18.5343 0.00327258 18.5196 0.0024078C18.5116 0.00193302 18.5039 0 18.4957 0H0.41672C0.186656 0 0 0.18652 0 0.41672V18.4957C0 18.7259 0.186656 18.9124 0.41672 18.9124H6.09208V24.5877C6.09208 24.8179 6.27874 25.0044 6.5088 25.0044H24.5878C24.8179 25.0044 25.0045 24.8179 25.0045 24.5877V6.50867C25.0045 6.27847 24.8179 6.09195 24.5878 6.09195ZM8.24866 6.09195L18.079 1.09601V6.09195H8.24866ZM0.833439 18.079V0.833439H16.7559L6.31998 6.13712C6.31265 6.14087 6.30668 6.14612 6.29963 6.15024C6.28701 6.15762 6.27467 6.16515 6.26287 6.17376C6.25188 6.18185 6.2417 6.19055 6.23167 6.19957C6.22176 6.20835 6.2124 6.21727 6.20345 6.22695C6.19396 6.23725 6.18527 6.24794 6.177 6.25905C6.16913 6.26946 6.16181 6.28001 6.15489 6.29115C6.14783 6.30268 6.14159 6.31443 6.13563 6.32654C6.12979 6.33863 6.12423 6.3508 6.11948 6.36352C6.11474 6.37627 6.11094 6.38916 6.10755 6.40232C6.10416 6.41495 6.10104 6.42755 6.099 6.44062C6.09642 6.45544 6.09534 6.47029 6.09439 6.48537C6.09398 6.49324 6.09208 6.50068 6.09208 6.50867V18.079H0.833439ZM24.1711 24.171H7.94209L8.12061 24.0802C8.25734 24.0106 8.31187 23.8434 8.24242 23.7066C8.1727 23.5696 8.00557 23.5151 7.86884 23.5848L6.92552 24.0642V18.7735H7.14663C7.30019 18.7735 7.42445 18.6492 7.42445 18.4957C7.42445 18.3423 7.30019 18.2179 7.14663 18.2179H6.92552V6.92539H18.2179V8.17554C18.2179 8.32897 18.3422 8.45336 18.4957 8.45336C18.6493 8.45336 18.7735 8.32897 18.7735 8.17554V6.92539H24.1711V24.171Z" fill="white"/>
<path d="M14.0921 18.4957C14.0921 18.3423 13.9678 18.2179 13.8143 18.2179H12.1474C11.9938 18.2179 11.8696 18.3423 11.8696 18.4957C11.8696 18.6492 11.9938 18.7736 12.1474 18.7736H13.8143C13.9678 18.7736 14.0921 18.6492 14.0921 18.4957Z" fill="white"/>
<path d="M10.7583 18.4957C10.7583 18.3423 10.634 18.2179 10.4805 18.2179H8.81359C8.66004 18.2179 8.53578 18.3423 8.53578 18.4957C8.53578 18.6492 8.66004 18.7736 8.81359 18.7736H10.4805C10.634 18.7736 10.7583 18.6492 10.7583 18.4957Z" fill="white"/>
<path d="M17.1481 18.2179H15.4812C15.3277 18.2179 15.2034 18.3423 15.2034 18.4957C15.2034 18.6492 15.3277 18.7736 15.4812 18.7736H17.1481C17.3017 18.7736 17.4259 18.6492 17.4259 18.4957C17.4259 18.3423 17.3017 18.2179 17.1481 18.2179Z" fill="white"/>
<path d="M18.4957 12.8983C18.3421 12.8983 18.2179 13.0227 18.2179 13.1762V14.843C18.2179 14.9965 18.3421 15.1209 18.4957 15.1209C18.6492 15.1209 18.7735 14.9965 18.7735 14.843V13.1762C18.7735 13.0227 18.6492 12.8983 18.4957 12.8983Z" fill="white"/>
<path d="M18.4957 9.56464C18.3421 9.56464 18.2179 9.68903 18.2179 9.84245V11.5093C18.2179 11.6627 18.3421 11.7871 18.4957 11.7871C18.6492 11.7871 18.7735 11.6627 18.7735 11.5093V9.84245C18.7735 9.68903 18.6492 9.56464 18.4957 9.56464Z" fill="white"/>
<path d="M18.4958 16.2321C18.3423 16.2321 18.218 16.3565 18.218 16.5099V18.1768C18.218 18.2259 18.2341 18.2697 18.2565 18.3097C18.1321 18.384 18.0825 18.5409 18.1491 18.6719C18.1982 18.7684 18.2959 18.8239 18.3971 18.8239C18.4394 18.8239 18.4823 18.8142 18.5227 18.7937L18.6217 18.7434C18.7584 18.6738 18.813 18.5066 18.7435 18.3698C18.7367 18.3567 18.7255 18.3481 18.7171 18.3365C18.7502 18.2908 18.7736 18.2376 18.7736 18.1768V16.5099C18.7736 16.3565 18.6494 16.2321 18.4958 16.2321Z" fill="white"/>
<path d="M16.7849 19.0535L15.2987 19.8088C15.1619 19.8784 15.1074 20.0457 15.1769 20.1824C15.226 20.2789 15.3236 20.3344 15.4248 20.3344C15.4672 20.3344 15.51 20.3247 15.5504 20.3042L17.0366 19.5489C17.1734 19.4793 17.2279 19.3121 17.1585 19.1754C17.0887 19.0386 16.9222 18.9837 16.7849 19.0535Z" fill="white"/>
<path d="M13.8127 20.564L12.3268 21.3192C12.19 21.3888 12.1355 21.556 12.2049 21.6928C12.254 21.7892 12.3517 21.8447 12.4529 21.8447C12.4952 21.8447 12.5381 21.835 12.5785 21.8146L14.0644 21.0594C14.2012 20.9898 14.2557 20.8226 14.1863 20.6858C14.1165 20.5488 13.9494 20.4943 13.8127 20.564Z" fill="white"/>
<path d="M10.841 22.0744L9.35484 22.8297C9.21811 22.8992 9.16357 23.0665 9.23303 23.2032C9.28213 23.2997 9.3798 23.3552 9.481 23.3552C9.52332 23.3552 9.56619 23.3455 9.60661 23.3251L11.0928 22.5698C11.2295 22.5002 11.2841 22.3329 11.2146 22.1962C11.1449 22.0594 10.978 22.0045 10.841 22.0744Z" fill="white"/>
</svg>
