<svg width="177" height="44" viewBox="0 0 177 44" fill="none" xmlns="http://www.w3.org/2000/svg">
<path d="M47.0152 6.04718C42.4434 1.69321 37.6947 0.786135 32.0022 0.786135H21.7674V42.4209H32.0022C37.0163 42.4209 42.3254 41.7558 47.2216 36.8878C51.233 32.9269 53.4451 27.5146 53.4451 21.6489C53.4746 15.6017 51.174 10.0383 47.0152 6.04718ZM50.7905 21.6489C50.7905 26.6076 48.9028 31.2941 45.4814 34.8015C42.0895 38.2484 38.0782 39.7299 32.0612 39.7299H24.4514V3.47713H32.0612C37.9307 3.47713 41.706 4.77727 45.098 7.9218C48.7554 11.3989 50.7905 16.2971 50.7905 21.6489ZM164.553 22.4048C165.497 22.2838 166.5 22.0117 167.827 21.3465C171.455 19.5626 173.52 15.9645 173.52 11.4292C173.52 7.83109 172.045 4.83774 169.125 2.60028C166.736 0.755894 163.934 0.786135 160.66 0.786135H159.657H152.077V42.4209H154.761V22.4653H161.309C161.722 23.07 174.876 42.7535 174.876 42.7535L177 40.9998L164.553 22.4048ZM170.865 11.3082C170.865 14.7551 169.39 17.4763 166.706 18.9579C165.143 19.8045 163.108 19.8045 161.279 19.7743H160.748H154.79V3.47713H160.335H160.925C163.108 3.47713 165.792 3.44689 167.562 4.74703C169.685 6.28906 170.865 8.61723 170.865 11.3082ZM55.2443 0.695426V42.5116H74.2981V39.609H58.1053V22.1629H73.8852V19.2603H58.1053V3.56783H74.2981V0.695426H55.2443ZM107.539 37.3413C104.324 39.5485 100.46 40.8789 97.1568 40.8789C92.6735 40.8789 87.6004 38.6415 83.9135 35.0434C80.4036 31.5965 78.3979 26.8797 78.3979 22.0722C78.3979 11.6711 86.981 2.87241 97.1568 2.87241C101.316 2.87241 105.386 4.3842 108.63 7.1659L109.073 7.55897L111.108 5.77505L110.489 5.23081C106.861 1.99557 102.023 0.151179 97.2453 0.151179C91.5527 0.151179 86.1846 2.41887 82.0848 6.53095C77.9555 10.6733 75.6844 16.146 75.6844 21.9512C75.6844 33.6828 85.5357 43.6001 97.1863 43.6001C101.434 43.6001 105.563 42.2698 109.191 39.7299L109.781 39.3066L108.07 36.9785L107.539 37.3413ZM128.952 0C117.361 0 107.569 10.0383 107.569 21.921C107.569 27.6658 109.81 33.1083 113.91 37.2506C117.98 41.3627 123.319 43.6304 128.952 43.6304C134.586 43.6304 139.925 41.3627 143.995 37.2506C148.095 33.1083 150.336 27.6658 150.336 21.921C150.336 10.0383 140.544 0 128.952 0ZM115.798 35.2853C112.258 31.6872 110.312 26.9402 110.312 21.921C110.312 11.5199 118.836 2.72123 128.952 2.72123C139.099 2.72123 147.652 11.5199 147.652 21.921C147.652 32.171 139.099 40.8487 128.952 40.8487C124.027 40.8789 119.337 38.8833 115.798 35.2853ZM13.9807 34.6805V35.0131H14.0397C17.4611 35.0131 18.6704 36.7668 18.6704 38.4298V39.1555H9.52691V38.8833C9.52691 37.6739 10.7657 36.9482 12.8599 36.9482H12.9188V36.6156H5.66306V36.9482H5.72205C7.43276 36.9482 9.17297 37.553 9.17297 38.8833V39.1555H0.353941V38.2182C0.353941 36.7668 1.50425 35.0434 4.71921 35.0434H4.7782V34.7108H0.0294952V42.4209H0.383436V41.151H18.6999V42.4209H19.0538V34.6805H13.9807ZM13.9512 23.0397V23.4026H14.0102C16.9892 23.463 18.6704 24.6725 18.6704 26.6983V27.5751H0.353941V26.1238H0V31.0522H0.353941V29.6009H18.6704V31.0522H19.0243V23.0397H13.9512ZM13.9512 11.671V12.0339H14.0102C16.9892 12.0944 18.6704 13.3038 18.6704 15.3296V16.2064H0.353941V14.7551H0V19.6836H0.353941V18.2322H18.6704V19.6836H19.0243V11.671H13.9512ZM18.9653 0.786135H13.9807V1.11873H14.0397C17.4611 1.11873 18.6704 2.87241 18.6704 4.53539V5.26105H9.52691V4.98892C9.52691 3.77949 10.7657 3.05382 12.8599 3.05382H12.9188V2.72123H5.66306V3.05382H5.72205C7.43276 3.05382 9.17297 3.65855 9.17297 4.98892V5.26105H0.353941V4.32373C0.353941 2.87241 1.50425 1.14896 4.71921 1.14896H4.7782V0.816368H0.0294952V8.52652H0.383436V7.25662H18.6999V8.52652H19.0538V0.786135C19.0243 0.786135 18.9653 0.786135 18.9653 0.786135ZM155.557 40.9394C155.557 40.3951 155.999 39.9416 156.53 39.9416C157.061 39.9416 157.504 40.3951 157.504 40.9394C157.504 41.4836 157.061 41.9372 156.53 41.9372C155.999 41.9372 155.557 41.4836 155.557 40.9394ZM157.386 40.9394C157.386 40.4556 157.002 40.0625 156.56 40.0625C156.088 40.0625 155.705 40.4556 155.705 40.9394C155.705 41.4232 156.088 41.8162 156.56 41.8162C157.002 41.8162 157.386 41.4232 157.386 40.9394ZM157.002 41.4836H156.855L156.56 40.9696H156.294V41.4836H156.176V40.3951H156.648C156.914 40.3951 157.032 40.5161 157.032 40.6975C157.032 40.9091 156.884 40.9998 156.707 40.9998L157.002 41.4836ZM156.501 40.8789C156.648 40.8789 156.884 40.9091 156.884 40.6975C156.884 40.5463 156.737 40.5463 156.589 40.5463H156.294V40.8789H156.501Z" fill="#333333"/>
</svg>
