<svg width="233" height="33" viewBox="0 0 233 33" fill="none" xmlns="http://www.w3.org/2000/svg">
<g clip-path="url(#clip0_1_99)">
<path d="M6.41425 13.3163V0.529155H0V32.4534H6.41425V18.2274H13.7648V32.4708H20.1834V0.546647H13.7648V13.3163H6.41425ZM32.2288 28.2245C28.6147 28.2245 28.1466 24.6822 28.1466 16.5C28.1466 8.31778 28.6147 4.77551 32.2288 4.77551C35.8428 4.77551 36.3066 8.31778 36.3066 16.5C36.3066 24.6822 35.8384 28.2245 32.2288 28.2245ZM32.2288 33C42.8083 33 42.8083 24.8615 42.8083 16.5C42.7865 8.05102 42.7865 0 32.2069 0C21.6273 0 21.6273 8.05102 21.6273 16.5C21.6273 24.8615 21.6273 33 32.2069 33H32.2288ZM50.6052 32.4708V7.82799H50.6927L56.3019 32.4708H62.4274L68.3341 7.82799H68.4172V32.4708H74.6652V0.546647H64.6675L59.5659 22.2507H59.5046L54.6918 0.529155H44.366V32.4534L50.6052 32.4708ZM93.5623 32.4708V27.551H82.8908V18.2274H92.4116V13.3163H82.8908V5.44461H93.2166V0.529155H76.4766V32.4534L93.5623 32.4708ZM125.428 5.44023H128.74C133.203 5.44023 133.203 10.6181 133.203 16.5C133.198 24.4898 132.433 27.551 128.521 27.551H125.424V5.44023H125.428ZM119.009 32.4708H129.462C140.422 32.4708 139.7 21.2318 139.7 16.3251C139.7 6.37172 138.13 0.529155 129.716 0.529155H119.009V32.4534V32.4708ZM158.523 32.4708V27.551H147.856V18.2274H157.372V13.3163H147.856V5.44461H158.177V0.529155H141.442V32.4534L158.523 32.4708ZM178.321 23.7551C178.321 13.6968 165.405 14.2434 165.405 8.18222C165.405 5.97376 166.639 4.77551 168.722 4.77551C171.312 4.77551 171.693 7.21137 171.693 9.58601H177.941C178.361 2.92128 175.259 0 169.015 0C161.196 0 158.904 3.97959 158.904 8.97813C158.904 18.4898 171.82 18.844 171.82 24.5948C171.82 26.7813 170.756 28.2245 168.591 28.2245C165.064 28.2245 164.933 25.6574 164.933 22.605H158.519C158.177 28.1327 159.665 33 167.611 33C172.498 33 178.317 32.0292 178.317 23.7551H178.321ZM185.93 32.4708V0.546647H179.507V32.4708H185.93ZM208.319 10.3513C208.704 3.67347 204.788 0 198.5 0C188 0 187.623 8.18222 187.623 16.2332C187.623 28.3557 188.857 33 199.647 33C202.198 33 206.573 32.2915 208.314 31.9373V15.7434H198.417V20.6589H201.918V27.7347C200.897 28.1187 199.818 28.3286 198.728 28.3557C195.075 28.3557 194.143 26.5845 194.143 16.5875C194.143 10.395 194.143 4.77988 198.137 4.77988C201.533 4.77988 202.001 7.40379 201.961 10.3557L208.319 10.3513ZM216.094 32.4708V9.1137H216.181L224.551 32.4708H233.004V0.546647H227.01V22.6487H226.923L218.767 0.529155H210.099V32.4534L216.094 32.4708Z" fill="#333333"/>
<path d="M109.331 5.85109C109.331 8.66742 107.428 11.0989 105.069 12.2447C103.665 10.0012 101.897 7.18929 101.897 4.99395C101.897 2.79862 103.21 1.32048 105.253 1.32048C107.563 1.32048 109.331 2.94293 109.331 5.85109ZM123.201 25.4561C122.794 26.4575 121.389 29.077 119.622 29.077C117.128 29.077 114.59 25.8846 112.324 22.8321C113.772 20.3044 115.723 18.1572 116.13 18.1572C116.45 18.1572 116.568 18.4896 116.568 19.3511C116.568 20.4925 117.29 21.6383 118.699 21.6383C120.239 21.6383 121.236 20.5887 121.236 19.0144C121.236 16.9633 119.924 15.9138 118.379 15.9138C115.57 15.9138 113.439 20.112 111.899 22.163C109.677 19.1018 107.546 16.01 105.459 12.8613C108.084 11.1951 110.04 9.1922 110.04 5.80299C110.04 2.61057 108.001 0.555176 104.872 0.555176C103.998 0.567074 103.134 0.752098 102.332 1.09956C101.529 1.44701 100.803 1.95001 100.196 2.57949C99.5892 3.20897 99.113 3.95244 98.7952 4.76694C98.4774 5.58145 98.3242 6.45083 98.3445 7.32486C98.3445 9.80882 100.292 12.717 101.517 14.7593C98.2264 16.7272 93.5579 20.1164 93.5579 24.5464C93.5579 28.7928 97.0931 32.5144 101.127 32.5144C104.662 32.5144 107.791 29.2214 109.694 26.3919C112.416 30.3015 115.316 32.5144 117.172 32.5144C120.711 32.5144 122.523 28.6004 123.791 25.6922L123.201 25.4561ZM97.3863 21.494C97.3644 17.9298 99.3202 17.0552 101.897 15.3059C104.299 18.8044 106.658 22.3642 109.239 25.7491C107.743 27.8963 106.566 29.6587 103.844 29.6587C100.537 29.6587 97.3644 24.6514 97.3644 21.5027L97.3863 21.494Z" fill="#888888"/>
</g>
<defs>
<clipPath id="clip0_1_99">
<rect width="233" height="33" fill="white"/>
</clipPath>
</defs>
</svg>
