<svg width="198" height="38" viewBox="0 0 198 38" fill="none" xmlns="http://www.w3.org/2000/svg">
<path d="M11.154 18.8646H4.257V2.16085H0V36.9575H4.257V21.2461H11.154V36.9575H15.345V2.16085H11.154V18.8646ZM25.179 11.5215C20.823 11.5215 17.787 15.5238 17.787 24.4545C17.787 33.6167 21.054 37.5198 25.179 37.5198C29.139 37.5198 32.505 33.8152 32.505 24.4545C32.538 15.4246 29.403 11.5215 25.179 11.5215ZM25.179 35.9321C23.133 35.9321 22.209 33.319 22.209 24.5537C22.209 15.4577 23.232 13.1092 25.146 13.1092C27.159 13.1092 28.116 15.7223 28.116 24.4876C28.116 33.5506 27.093 35.9321 25.179 35.9321ZM95.766 18.8646C98.208 17.773 100.386 15.2592 100.386 10.8931C100.386 4.87313 97.35 2.16085 93.06 2.16085H85.899V36.9575H92.829C97.779 36.9575 101.046 34.1129 101.046 27.266C101.046 22.4368 98.769 19.8899 95.766 18.8646ZM90.156 4.2116H91.806C94.314 4.2116 95.931 5.33621 95.931 10.9923C95.931 16.483 94.083 17.6076 91.641 17.6076H90.156V4.2116ZM91.839 34.8075H90.156V19.923H91.575C94.611 19.923 96.525 21.2792 96.525 27.3653C96.558 33.5175 94.71 34.8075 91.839 34.8075ZM157.476 14.2669V12.0177H153.351V3.74853L149.325 4.54237V12.0177H147.345V14.2669H149.325V37.2221H153.351V14.2669H157.476ZM161.733 7.58542C162.822 7.58542 163.779 6.62619 163.779 5.53467C163.779 4.44314 162.855 3.48391 161.733 3.48391C160.611 3.48391 159.687 4.41006 159.687 5.53467C159.654 6.59312 160.611 7.58542 161.733 7.58542ZM163.713 12.0177L159.72 12.7785V26.7368H159.687V37.189H163.68L163.713 12.0177ZM177.177 3.74853H178.959C178.959 1.79701 177.375 0.0439453 174.504 0.0439453C170.511 0.0439453 168.366 3.28546 168.366 8.31311V12.0177H166.023V14.2669H168.333V37.2221H172.326V14.2669H175.428V12.0177H172.194C172.128 10.5623 171.831 8.57772 171.831 6.69235C171.831 4.14545 172.59 1.6647 174.867 1.6647C174.834 1.6647 176.814 1.6647 177.177 3.74853ZM193.941 2.39238V37.189H198V1.63162L193.941 2.39238ZM54.846 35.9983C54.846 35.9983 52.833 35.9983 51.447 33.749L50.193 34.8736C51.282 36.6598 53.13 37.4867 55.209 37.4867C59.169 37.4867 61.842 35.2375 61.842 31.996C61.842 27.0014 56.298 22.8999 54.087 19.063C53.526 18.0707 53.196 17.0453 53.196 16.1192C53.196 14.3992 54.285 13.1754 56.232 13.1754C56.232 13.1754 58.443 13.0761 59.829 15.2923L61.083 14.1677C59.994 12.3815 58.146 11.5546 56.067 11.5546H55.869C51.579 11.5546 49.566 14.2007 49.566 17.343C49.566 23.7268 57.915 27.6299 57.915 32.8229C57.915 35.2375 56.529 36.0644 54.945 36.0644L54.846 35.9983ZM76.527 22.8999C76.197 14.9615 73.425 11.5215 69.696 11.5215C65.637 11.5215 62.799 15.5238 62.799 24.4545V24.5537C62.799 33.5837 66 37.4867 69.894 37.4867C69.894 37.4867 70.323 37.5198 70.785 37.4867C72.897 37.4205 74.745 36.6598 75.801 34.8736L74.547 33.749C73.821 34.7413 72.996 35.1052 71.676 35.2044C70.884 35.2706 70.719 35.2044 70.719 35.2044C68.772 35.2044 67.254 33.3852 66.924 27.2329L66.891 26.406L76.527 22.8999ZM69.663 13.0431C71.346 13.0431 72.27 15.16 72.435 22.1061L66.957 24.1237V22.8668C67.056 15.0938 68.013 13.0431 69.663 13.0431ZM116.127 22.8999C115.797 14.9615 113.025 11.5215 109.296 11.5215C105.237 11.5215 102.399 15.5238 102.399 24.4545V24.5537C102.399 33.5837 105.6 37.4867 109.494 37.4867C109.494 37.4867 109.923 37.5198 110.385 37.4867C112.497 37.4205 114.345 36.6598 115.401 34.8736L114.147 33.749C113.421 34.7413 112.596 35.1052 111.276 35.2044C110.484 35.2706 110.319 35.2044 110.319 35.2044C108.372 35.2044 106.854 33.3852 106.524 27.2329L106.491 26.406C106.524 26.4391 116.127 22.8999 116.127 22.8999ZM109.263 13.0431C110.946 13.0431 111.87 15.16 112.035 22.1061L106.557 24.1237V22.8668C106.656 15.0938 107.613 13.0431 109.263 13.0431ZM43.758 35.4029C44.187 36.8913 45.342 37.3213 46.431 37.3213C47.454 37.3213 48.51 36.8582 48.906 36.4283V34.7744C47.982 35.3036 47.256 35.039 47.256 33.9475V12.0508L43.263 12.8115V33.8152C42.669 34.8737 41.679 35.469 40.656 35.469C39.567 35.469 38.709 34.8736 38.709 32.9221V12.0838L34.716 12.8777V32.6244C34.716 35.469 36.135 37.5859 39.303 37.5859C40.821 37.5859 42.669 36.9244 43.758 35.469C43.692 35.436 43.758 35.4029 43.758 35.4029ZM141.57 35.4029C141.999 36.8913 143.154 37.3213 144.243 37.3213C145.266 37.3213 146.322 36.8582 146.718 36.4283V34.7744C145.794 35.3036 145.068 35.039 145.068 33.9475V12.0508L141.075 12.8115V33.8152C140.481 34.8737 139.491 35.469 138.468 35.469C137.379 35.469 136.521 34.8736 136.521 32.9221V12.0838L132.528 12.8777V32.6244C132.528 35.469 133.947 37.5859 137.115 37.5859C138.633 37.5859 140.481 36.9244 141.57 35.469C141.504 35.436 141.57 35.4029 141.57 35.4029ZM186.78 35.4029C187.209 36.8913 188.364 37.3213 189.453 37.3213C190.476 37.3213 191.532 36.8582 191.928 36.4283V34.7744C191.004 35.3036 190.278 35.039 190.278 33.9475V12.0508L186.285 12.8115V33.8152C185.691 34.8737 184.701 35.469 183.678 35.469C182.589 35.469 181.731 34.8736 181.731 32.9221V12.0838L177.738 12.8777V32.6244C177.738 35.469 179.157 37.5859 182.325 37.5859C183.843 37.5859 185.691 36.9244 186.78 35.469V35.4029ZM129.723 33.9144L129.69 33.749V18.633C129.69 13.6384 127.776 11.4885 123.684 11.4885H123.189C121.077 11.4885 119.328 12.2823 118.239 14.0684L119.493 15.193C119.493 15.193 120.846 13.2084 122.727 13.2415C124.377 13.2746 125.697 13.8369 125.697 17.2438V21.213C120.516 22.4038 116.754 24.8514 116.754 30.7391C116.754 35.7998 119.559 37.5198 121.935 37.5198C123.321 37.5198 125.037 36.8913 126.225 35.6013C126.687 36.9575 127.809 37.3213 128.865 37.3213C129.921 37.3213 130.944 36.8582 131.34 36.4283V34.7744C130.482 35.2706 129.723 35.006 129.723 33.9144ZM125.697 26.7037L125.664 32.2937V34.0137C125.301 34.7413 124.344 35.5352 123.288 35.5352C122.034 35.5352 120.846 34.4437 120.846 30.276C120.846 25.546 122.397 23.826 125.73 22.7676L125.697 26.7037Z" fill="#333333"/>
</svg>
