<svg width="205" height="41" viewBox="0 0 205 41" fill="none" xmlns="http://www.w3.org/2000/svg">
<path d="M0 40.1138H15.8192V39.3132C10.9333 39.1391 10.3525 37.5728 10.3525 34.8229V6.52379C10.3525 3.80874 10.9333 2.20756 15.8192 2.03352V1.26774H0V2.03352C4.88583 2.20756 5.46667 3.87836 5.46667 6.52379V34.7533C5.46667 37.5031 4.88583 39.0695 0 39.2436V40.1138ZM22.96 40.6011C26.0008 40.6011 28.3242 39.0695 30.135 37.0158V40.3226L37.6175 40.0442V39.348C34.645 39.2784 34.3375 38.5474 34.3375 37.0158V0.0146484L26.2058 0.29311V1.0589C30.0325 1.16332 30.0325 1.9639 30.0325 4.26125V12.5804C28.6658 11.5362 27.1625 10.9096 24.5658 10.9096C17.8692 10.9096 13.2908 17.3492 13.2908 26.0512C13.325 34.0919 16.5708 40.6011 22.96 40.6011ZM25.01 38.3385C20.2267 38.3385 18.1083 33.0825 18.1083 26.0164C18.1083 17.5232 20.295 11.9887 24.6342 11.9887C27.2992 11.9887 28.6658 13.2418 29.9983 15.2955V35.5191C28.8367 37.1203 27.3675 38.3385 25.01 38.3385ZM47.1158 40.6011C52.3092 40.6011 54.5983 37.0854 56.5117 33.1869L55.9308 32.6996C53.7442 36.1108 52.3775 38.1645 49.0292 38.1645C43.46 38.1645 40.9658 32.4907 40.9658 25.4595V25.3899C40.9658 24.8329 40.9658 23.2318 41.0342 22.64H56.3408C56.7508 15.7828 53.8808 10.84 47.1158 10.84C41.205 10.84 36.1825 17.4536 36.1825 25.9816C36.1142 34.266 40.4192 40.6011 47.1158 40.6011ZM46.74 11.9887C50.2592 11.9887 51.9333 14.9126 51.455 21.6654H41C41.41 14.5297 44.2458 11.9887 46.74 11.9887ZM64.0625 40.4967C67.1033 40.4967 69.5292 38.3733 71.6133 35.5887H71.8183C71.9892 39.0347 72.8775 40.4967 75.5425 40.3922C76.6017 40.3226 77.3533 40.079 78.0025 39.5916V38.4082C75.9183 39.3828 75.9867 37.2247 75.9867 34.1267V19.6813C75.9867 13.6595 72.9458 11.0141 67.5475 11.0141C62.5933 11.0141 58.63 13.8335 58.63 17.4536C58.63 19.2984 59.5183 20.7604 61.2267 20.7604C62.9692 20.7604 63.9942 19.2984 63.9942 17.4536C63.9942 16.3049 63.4133 15.191 62.6617 14.2164C63.55 12.9285 65.3608 12.1627 67.2742 12.1627C70.52 12.1627 71.75 14.6689 71.75 19.5769V21.8046C70.9642 22.5704 63.96 23.4754 60.9192 26.3645C58.7325 28.1049 57.8783 31.4465 57.8783 33.9527C57.7417 37.2943 59.6892 40.4967 64.0625 40.4967ZM66.5567 38.0601C63.6525 38.0601 62.4567 35.7975 62.4567 32.804C62.4567 28.6967 63.9942 25.0766 71.5792 23.0229V34.0571C70.4858 35.9368 68.6067 38.0601 66.5567 38.0601ZM78.6175 40.1138H88.97V39.348C85.9292 39.2784 85.69 38.9651 85.69 36.8418V0.0146484L77.5583 0.29311V1.0589C81.385 1.16332 81.385 1.9639 81.385 4.26125V36.8766C81.385 38.9999 80.975 39.3132 78.6175 39.3828V40.1138ZM93.7875 40.1138H108.992V39.3132C104.106 39.1391 104.037 37.7468 104.037 34.8925V20.5515H118.763V34.8229C118.763 37.6772 118.763 39.1043 113.877 39.2436V40.0442H129.013V39.2436C124.401 39.0695 123.718 37.5728 123.718 34.8229V6.45418C123.718 3.73913 124.469 2.17276 129.013 2.03352V1.26774H113.877V2.03352C118.695 2.20756 118.763 3.66952 118.763 6.45418V19.2288H104.037V6.45418C104.037 3.63471 104.037 2.17276 108.992 2.03352V1.26774H93.7875V2.03352C98.4 2.20756 99.0833 4.08721 99.0833 6.73264V35.1014C99.0833 37.8512 98.3317 39.1043 93.7875 39.2784V40.1138ZM137.077 40.6011C143.09 40.6011 148.488 34.3356 148.488 25.5639C148.488 16.8618 143.295 10.84 137.077 10.84C131.029 10.84 125.597 17.1055 125.597 25.8424C125.597 34.5792 130.756 40.6011 137.077 40.6011ZM137.282 39.4524C133.147 39.4524 130.551 36.0064 130.551 25.6683C130.551 15.3303 132.738 11.9887 136.803 11.9887C140.938 11.9887 143.534 15.3999 143.534 25.6683C143.568 36.0064 141.313 39.4524 137.282 39.4524ZM161.882 40.1138H172.302V39.348C169.262 39.2784 169.023 38.9651 169.023 36.8418V19.0548C170.628 15.5391 172.883 13.7639 174.967 13.7639C178.111 13.7639 178.794 16.4093 178.794 21.3869V36.8766C178.794 38.9999 178.965 39.3132 176.3 39.3828V40.1486H186.379V39.3828C183.338 39.3132 183.099 38.9999 183.099 36.8766V19.5073C183.099 13.8683 180.776 11.0837 177.052 11.0837C173.806 11.0837 171.141 13.4158 168.886 17.5928C168.408 13.2766 166.187 11.0837 162.941 11.0837C159.422 11.0837 157.098 13.5202 154.775 18.3238V11.2229L147.292 11.5014V12.2672C150.265 12.3368 150.573 13.5551 150.573 15.4695V36.9114C150.573 39.0347 150.299 39.348 147.292 39.4176V40.1834H157.337V39.4176C154.741 39.348 154.878 39.0347 154.878 36.9114V19.9598C156.312 16.2353 158.26 13.7291 160.823 13.7291C163.966 13.7291 164.649 16.3745 164.649 21.3521V36.8418C164.649 38.9651 164.478 39.2784 161.848 39.348V40.1486H161.882V40.1138ZM195.604 40.6011C200.798 40.6011 203.053 37.0854 205 33.1869L204.419 32.6996C202.232 36.1108 200.388 38.1645 197.039 38.1645C191.47 38.1645 189.693 32.4907 189.693 25.4595V25.3899C189.693 24.8329 189.693 23.2318 189.762 22.64H204.829C205.239 15.7828 202.369 10.84 195.604 10.84C189.659 10.84 184.876 17.4536 184.876 25.9816C184.876 34.266 188.976 40.6011 195.604 40.6011ZM195.297 11.9887C198.816 11.9887 200.49 14.9126 200.012 21.6654H189.762C190.24 14.5297 192.632 11.9887 195.297 11.9887Z" fill="#333333"/>
</svg>
