<svg width="116" height="20" viewBox="0 0 116 20" fill="none" xmlns="http://www.w3.org/2000/svg">
<path d="M18.3333 8.41678C18.4167 8.00011 18.0833 7.50011 17.6667 7.50011L12.9167 6.83344L10.75 2.50011C10.6667 2.33344 10.5833 2.25011 10.4167 2.16678C9.99999 1.91678 9.49999 2.08344 9.24999 2.50011L7.16666 6.83344L2.41666 7.50011C2.16666 7.50011 1.99999 7.58345 1.91666 7.75011C1.58332 8.08345 1.58332 8.58344 1.91666 8.91678L5.33332 12.2501L4.49999 17.0001C4.49999 17.1668 4.49999 17.3334 4.58332 17.5001C4.83332 17.9168 5.33332 18.0834 5.74999 17.8334L9.99999 15.5834L14.25 17.8334C14.3333 17.9168 14.5 17.9168 14.6667 17.9168C14.75 17.9168 14.75 17.9168 14.8333 17.9168C15.25 17.8334 15.5833 17.4168 15.5 16.9168L14.6667 12.1668L18.0833 8.83344C18.25 8.75011 18.3333 8.58345 18.3333 8.41678Z" fill="#FBB231"/>
<path d="M42.3333 8.41678C42.4167 8.00011 42.0833 7.50011 41.6667 7.50011L36.9167 6.83344L34.75 2.50011C34.6667 2.33344 34.5833 2.25011 34.4167 2.16678C34 1.91678 33.5 2.08344 33.25 2.50011L31.1667 6.83344L26.4167 7.50011C26.1667 7.50011 26 7.58345 25.9167 7.75011C25.5833 8.08345 25.5833 8.58344 25.9167 8.91678L29.3333 12.2501L28.5 17.0001C28.5 17.1668 28.5 17.3334 28.5833 17.5001C28.8333 17.9168 29.3333 18.0834 29.75 17.8334L34 15.5834L38.25 17.8334C38.3333 17.9168 38.5 17.9168 38.6667 17.9168C38.75 17.9168 38.75 17.9168 38.8333 17.9168C39.25 17.8334 39.5833 17.4168 39.5 16.9168L38.6667 12.1668L42.0833 8.83344C42.25 8.75011 42.3333 8.58345 42.3333 8.41678Z" fill="#FBB231"/>
<path d="M66.3333 8.41678C66.4167 8.00011 66.0833 7.50011 65.6667 7.50011L60.9167 6.83344L58.75 2.50011C58.6667 2.33344 58.5833 2.25011 58.4167 2.16678C58 1.91678 57.5 2.08344 57.25 2.50011L55.1667 6.83344L50.4167 7.50011C50.1667 7.50011 50 7.58345 49.9167 7.75011C49.5833 8.08345 49.5833 8.58344 49.9167 8.91678L53.3333 12.2501L52.5 17.0001C52.5 17.1668 52.5 17.3334 52.5833 17.5001C52.8333 17.9168 53.3333 18.0834 53.75 17.8334L58 15.5834L62.25 17.8334C62.3333 17.9168 62.5 17.9168 62.6667 17.9168C62.75 17.9168 62.75 17.9168 62.8333 17.9168C63.25 17.8334 63.5833 17.4168 63.5 16.9168L62.6667 12.1668L66.0833 8.83344C66.25 8.75011 66.3333 8.58345 66.3333 8.41678Z" fill="#FBB231"/>
<path d="M90.3333 8.41678C90.4167 8.00011 90.0833 7.50011 89.6667 7.50011L84.9167 6.83344L82.75 2.50011C82.6667 2.33344 82.5833 2.25011 82.4167 2.16678C82 1.91678 81.5 2.08344 81.25 2.50011L79.1667 6.83344L74.4167 7.50011C74.1667 7.50011 74 7.58345 73.9167 7.75011C73.5833 8.08345 73.5833 8.58344 73.9167 8.91678L77.3333 12.2501L76.5 17.0001C76.5 17.1668 76.5 17.3334 76.5833 17.5001C76.8333 17.9168 77.3333 18.0834 77.75 17.8334L82 15.5834L86.25 17.8334C86.3333 17.9168 86.5 17.9168 86.6667 17.9168C86.75 17.9168 86.75 17.9168 86.8333 17.9168C87.25 17.8334 87.5833 17.4168 87.5 16.9168L86.6667 12.1668L90.0833 8.83344C90.25 8.75011 90.3333 8.58345 90.3333 8.41678Z" fill="#FBB231"/>
<path d="M114.333 8.41678C114.417 8.00011 114.083 7.50011 113.667 7.50011L108.917 6.83344L106.75 2.50011C106.667 2.33344 106.583 2.25011 106.417 2.16678C106 1.91678 105.5 2.08344 105.25 2.50011L103.167 6.83344L98.4167 7.50011C98.1667 7.50011 98 7.58345 97.9167 7.75011C97.5833 8.08345 97.5833 8.58344 97.9167 8.91678L101.333 12.2501L100.5 17.0001C100.5 17.1668 100.5 17.3334 100.583 17.5001C100.833 17.9168 101.333 18.0834 101.75 17.8334L106 15.5834L110.25 17.8334C110.333 17.9168 110.5 17.9168 110.667 17.9168C110.75 17.9168 110.75 17.9168 110.833 17.9168C111.25 17.8334 111.583 17.4168 111.5 16.9168L110.667 12.1668L114.083 8.83344C114.25 8.75011 114.333 8.58345 114.333 8.41678Z" fill="#FBB231"/>
</svg>
