<svg width="47" height="24" viewBox="0 0 47 24" fill="none" xmlns="http://www.w3.org/2000/svg">
<path d="M10.5726 13.5154H0.293685C0.146842 13.5154 0 13.6644 0 13.8134V15.6013C0 15.7503 0.146842 15.8993 0.293685 15.8993H10.5726C10.7195 15.8993 10.8663 15.7503 10.8663 15.6013V13.8134C10.8663 13.6644 10.7195 13.5154 10.5726 13.5154Z" fill="#333333"/>
<path d="M10.5727 8.7475H3.27952C3.13268 8.7475 2.98584 8.89649 2.98584 9.04549V10.8334C2.98584 10.9824 3.13268 11.1314 3.27952 11.1314H10.5727C10.7196 11.1314 10.8664 10.9824 10.8664 10.8334V9.04549C10.8664 8.84683 10.7196 8.7475 10.5727 8.7475Z" fill="#333333"/>
<path d="M10.5727 3.93005H6.21635C6.06951 3.93005 5.92267 4.07905 5.92267 4.22804V6.01597C5.92267 6.16497 6.06951 6.31396 6.21635 6.31396H10.5727C10.7196 6.31396 10.8664 6.16497 10.8664 6.01597V4.22804C10.8664 4.07905 10.7196 3.93005 10.5727 3.93005Z" fill="#333333"/>
<path d="M46.0595 11.7274L43.9058 5.12201C43.7101 4.52603 43.1227 4.07905 42.4864 4.07905H35.8295V0.900506C35.8295 0.503188 35.5358 0.2052 35.1932 0.2052H14.1458C13.8032 0.2052 13.5095 0.503188 13.5095 0.900506V18.9785C13.5095 19.3261 13.8032 19.6241 14.1458 19.6241H17.3764C17.3764 22.008 19.2853 23.8953 21.5858 23.8953C23.8864 23.8953 25.7953 21.9584 25.7953 19.6241H34.1653C34.1653 22.008 36.0743 23.8953 38.3748 23.8953C40.6753 23.8953 42.5843 21.9584 42.5843 19.6241H45.7659C46.1574 19.6241 46.5001 19.2765 46.5001 18.8791V14.608C46.5001 13.6147 46.3532 12.6711 46.0595 11.7274ZM21.5858 21.6604C20.509 21.6604 19.579 20.7664 19.579 19.6241C19.579 18.5315 20.46 17.5879 21.5858 17.5879C22.6627 17.5879 23.5927 18.4818 23.5927 19.6241C23.5927 20.7664 22.7116 21.6604 21.5858 21.6604ZM38.4237 21.6604C37.3469 21.6604 36.4169 20.7664 36.4169 19.6241C36.4169 18.5315 37.298 17.5879 38.4237 17.5879C39.5495 17.5879 40.3816 18.5315 40.3816 19.6241C40.3816 20.7664 39.5006 21.6604 38.4237 21.6604ZM43.0248 10.8831H36.4658C36.1232 10.8831 35.8785 10.6348 35.8785 10.2871V6.95961C35.8785 6.61195 36.1232 6.36363 36.4658 6.36363H41.5074C41.7522 6.36363 41.9969 6.51262 42.0948 6.76095L43.3185 10.4858C43.3674 10.6845 43.2206 10.8831 43.0248 10.8831Z" fill="#333333"/>
</svg>
